<?xml version="1.0" encoding="UTF-8"?>
<svg width="421px" height="421px" viewBox="0 0 421 421" version="1.1" xmlns="http://www.w3.org/2000/svg" xmlns:xlink="http://www.w3.org/1999/xlink">
    <!-- Generator: Sketch 53 (72520) - https://sketchapp.com -->
    <title>icon-mask</title>
    <desc>Created with Sketch.</desc>
    <g id="icon-mask" stroke="none" stroke-width="1" fill="none" fill-rule="evenodd">
        <g id="Group-8" transform="translate(0.000000, 88.000000)" fill="#000000" fill-rule="nonzero">
            <path d="M218.112423,102.836106 L261.798234,77.4822997 C256.973234,68.9874679 258.072366,71.0411635 253.750358,63.0317506 C249.093022,54.5369188 250.84418,51.1949959 260.475551,51.1203161 C288.506504,50.9336165 316.537457,50.9336165 344.56841,51.1203161 C352.914356,51.1203161 354.907696,54.7422883 350.734723,62.0982526 C336.874491,86.5434537 322.865224,110.901528 308.706922,135.172477 C304.198621,142.92051 300.2492,142.90184 295.517347,135.321836 C290.785494,127.741832 291.959142,129.459469 286.761555,120.628578 L243.224778,145.889034 C244.01723,147.725234 244.971085,149.487153 246.075068,151.153962 C256.861458,169.973282 261.686458,178.953533 272.826806,197.548813 C286.035011,219.598036 313.718216,220.923603 329.441382,200.554677 C331.192179,198.279048 332.791552,195.890349 334.229124,193.404082 C360.682792,147.47598 387.086782,101.522985 413.441094,55.5450966 C416.242195,50.9029381 418.339178,45.8692721 419.663295,40.6091285 C421.916025,30.7802566 419.564395,20.4585165 413.278161,12.5835923 C406.991927,4.708668 397.460056,0.143644968 387.397271,0.18866486 C330.701968,-0.110054502 274.006664,-0.0540446214 217.311361,0.356694501 C205.561234,0.17917795 194.587212,6.21981601 188.432993,16.2527592 C182.278775,26.2857024 181.855113,38.8261926 187.318117,49.25332 C191.043986,56.7213041 195.45914,63.7225391 199.613484,70.8918038 C207.419179,84.408855 209.487036,87.9748173 218.112423,102.836106" id="Path"></path>
            <path d="M93.0246164,244.794937 C93.0246164,227.774702 93.0246164,194.461275 93.0246164,194.461275 C93.0246164,194.461275 86.0820067,194.461275 76.6890643,194.461275 C67.2961219,194.461275 65.1613622,191.068414 69.8763966,182.772681 C83.6131108,158.612523 97.5107055,134.533148 111.569181,110.534555 C115.727321,103.413274 119.421383,102.779443 123.987913,110.702334 C137.854569,134.825207 151.832604,158.910797 165.439376,183.12688 C169.820274,190.863351 167.83402,194.312139 159.016534,194.535844 L142.142651,194.535844 L142.142651,245 L200.913513,245 C226.270745,244.627158 241.13981,221.510958 231.579799,197.872779 C230.51123,195.239667 229.271,192.680152 227.867173,190.210877 C201.86642,144.624736 175.797601,99.0820936 149.660718,53.5829491 C147.089501,48.8704616 143.836498,44.567025 140.007892,40.8131128 C132.740414,33.9928395 122.768514,30.8804652 112.931748,32.362257 C103.094983,33.8440489 94.4712412,39.7576356 89.5161853,48.4190883 C61.1146005,96.8885402 33.0100256,145.587911 5.20246086,194.517202 C-0.781484624,204.520091 -1.07320227,216.949613 4.43482876,227.224516 C9.94285979,237.499418 20.4352546,244.098649 32.044743,244.589874 C40.1939559,245.111853 75.036946,244.813579 93.0246164,244.813579" id="Path"></path>
        </g>
    </g>
</svg>